<?xml version="1.0" encoding="utf-8" ?>
<svg xmlns="http://www.w3.org/2000/svg" xmlns:xlink="http://www.w3.org/1999/xlink" width="313" height="302">
	<path d="M171.443 218.502C176.067 218.426 180.674 218.603 185.29 218.604C187.505 218.605 189.88 218.221 192.071 218.392C192.387 218.417 192.684 218.546 192.961 218.692L192.307 218.573L192.351 218.863C189.629 219.161 186.808 219.446 184.068 219.293L184.298 219.026L184.219 218.872C180.189 217.941 175.544 219.474 171.443 218.502Z"/>
	<path d="M166.821 218.442C168.365 218.407 169.9 218.452 171.443 218.502C175.544 219.474 180.189 217.941 184.219 218.872L184.298 219.026L184.068 219.293C180.125 219.253 176.155 219.132 172.214 219.243C169.351 219.324 166.449 219.733 163.591 219.562L163.7 218.891C164.514 218.321 165.731 218.782 166.701 218.483C166.741 218.47 166.781 218.455 166.821 218.442Z"/>
	<path d="M226.549 59.4179C228.405 59.1704 233.04 59.3209 234.923 59.6508C235.54 59.7589 235.716 59.803 236.078 60.3002C236.035 60.3358 235.998 60.3779 235.951 60.407C235.467 60.7067 208.319 60.3637 205.978 60.0313C208.745 59.6715 211.578 59.8243 214.364 59.7295C216.84 59.6452 219.345 59.3334 221.82 59.4529L222.116 59.4688C223.558 59.4218 225.137 59.5901 226.549 59.4179ZM222.116 59.4688C221.407 59.6033 220.69 59.7201 219.988 59.8885C221.629 60.5398 226.213 60.3762 227.904 59.783C227.442 59.5368 227.067 59.4771 226.549 59.4179C225.137 59.5901 223.558 59.4218 222.116 59.4688Z"/>
	<path d="M222.116 59.4688C223.558 59.4218 225.137 59.5901 226.549 59.4179C227.067 59.4771 227.442 59.5368 227.904 59.783C226.213 60.3762 221.629 60.5398 219.988 59.8885C220.69 59.7201 221.407 59.6033 222.116 59.4688Z"/>
	<path d="M124.484 266.637C127.559 266.423 153.808 266.203 155.176 266.685L155.181 266.904L154.559 266.903C152.523 266.832 150.27 267.321 148.192 267.405C144.976 267.535 125.592 267.844 124.026 266.927L124.484 266.637Z"/>
	<path d="M163.591 219.562C156.649 219.223 149.459 219.115 142.506 219.209C139.711 219.247 136.893 219.636 134.1 219.505C132.988 219.453 130.597 219.242 129.69 218.635C130.246 218.241 163.023 218.448 166.821 218.442C166.781 218.455 166.741 218.47 166.701 218.483C165.731 218.782 164.514 218.321 163.7 218.891L163.591 219.562Z"/>
	<path d="M202.128 266.05C207.166 266.772 212.205 266.525 217.275 266.48C218.577 266.468 220.223 266.69 221.476 266.431C221.539 266.418 221.601 266.403 221.664 266.389L221.818 266.671L222.162 266.565C220.467 268.095 215.387 267.377 213.139 267.385C211.572 267.391 204.783 267.164 203.679 267.667C203.53 267.735 203.254 268.095 203.125 268.226C203.154 270.439 202.923 272.612 202.877 274.816C202.811 277.931 203.328 285.429 202.41 288.038C201.683 286.408 202.179 269.338 202.128 266.05Z"/>
	<path d="M72.606 43.2126L72.7944 43.6549C70.6594 46.9968 66.5597 55.1068 65.6414 58.7876C64.7337 62.4259 65.0207 65.7844 64.3077 69.1956C64.2353 69.542 64.0666 69.8008 63.8258 70.0515C63.6742 69.5659 63.5873 69.0925 63.5186 68.5893C62.4713 60.9156 65.6012 51.8242 70.1022 45.6054C70.7415 44.7221 71.8507 44.245 72.5214 43.3337C72.5506 43.294 72.5778 43.253 72.606 43.2126Z"/>
	<path d="M106.918 26.3593C110.998 26.0433 117.819 26.3901 121.546 27.7888C109.642 26.914 96.8617 26.6112 86.1395 32.7809C83.3783 34.3199 80.6071 37.0322 77.8595 38.2211C77.9671 37.6705 78.6473 37.113 79.0394 36.7009C85.2196 30.2047 98.1066 26.5647 106.918 26.3593Z"/>
	<defs>
		<linearGradient id="gradient_0" gradientUnits="userSpaceOnUse" x1="286.06631" y1="85.987404" x2="287.68369" y2="86.262596">
			<stop offset="0" stop-color="black" stop-opacity="0.098039217"/>
			<stop offset="1" stop-color="black" stop-opacity="0.14117648"/>
		</linearGradient>
	</defs>
	<path fill="url(#gradient_0)" d="M287.094 80.1742C287.164 80.2959 287.188 80.3299 287.245 80.4594C287.662 81.4086 287.64 82.6776 287.692 83.7064C288.018 90.1654 286.452 96.4428 284.171 102.439C283.46 104.308 281.704 109.497 279.794 110.315C279.295 110.528 278.962 110.738 278.538 111.068L278.379 111.195L278.231 111.082C278.217 110.315 280.032 107.953 280.48 107.188C282.337 104.017 284.078 100.361 284.969 96.7906C285.403 95.0465 285.752 93.2954 285.931 91.505C286.175 89.0569 285.802 81.8314 287.094 80.1742Z"/>
	<path d="M195.857 234.151L196.412 234.262L196.574 234.585C196.436 234.771 196.31 234.942 196.136 235.096C195.171 235.945 191.725 236.062 190.394 236.138C182.012 236.614 173.422 236.214 165.029 236.186C153.883 236.149 142.744 236.36 131.597 236.156L130.96 235.88L131.035 235.638C134.846 234.99 142.647 235.464 146.886 235.466L181.073 235.466C183.826 235.479 190.849 235.989 193.245 235.418C194.101 235.215 195.052 234.543 195.857 234.151Z"/>
	<path d="M144.05 191.037C147.492 190.746 151.115 190.975 154.575 190.981L175.25 191.049C179.17 191.057 190.692 190.419 193.717 191.181C194.878 191.474 195.971 191.986 196.574 193.085C197.152 194.138 196.978 195.357 196.652 196.459C196.279 197.718 195.643 198.075 194.547 198.672C191.9 199.282 148.901 199.351 145.251 198.885C144.153 198.745 143.175 198.222 142.532 197.301C141.88 196.367 141.746 195.213 141.956 194.116C142.222 192.727 142.889 191.81 144.05 191.037Z"/>
	<path d="M126.311 226.043C141.678 225.803 157.086 226.038 172.456 226.038C177.146 226.038 190.891 225.474 194.625 226.423C195.424 226.626 196.031 227.265 196.411 227.976C197.237 229.52 196.748 231.168 196.296 232.736C195.559 233.216 194.754 233.605 193.978 234.019C190.625 234.369 187.133 234.207 183.761 234.207L167.438 234.201L143.549 234.206C138.932 234.219 134.269 234.368 129.655 234.2C128.245 234.149 126.211 234.104 124.932 233.527C124.18 233.187 123.627 232.544 123.331 231.779C122.892 230.644 123.008 229.168 123.536 228.078C124.13 226.853 125.122 226.488 126.311 226.043Z"/>
	<path d="M125.881 208.293C129.548 207.97 133.371 208.155 137.056 208.155L156.69 208.163L179.814 208.159C184.724 208.159 189.681 208.022 194.581 208.347C195.668 209.219 196.373 209.956 196.787 211.311C197.132 212.443 197.139 213.619 196.515 214.663C195.82 215.826 194.904 216.113 193.68 216.436C188.529 216.658 183.338 216.543 178.181 216.562L146.738 216.567C142.633 216.566 129.301 217.109 126.16 216.365C125.041 216.1 124 215.527 123.436 214.482C122.905 213.497 122.799 212.145 123.124 211.083C123.546 209.704 124.67 208.929 125.881 208.293Z"/>
	<path d="M93.8922 10.3593C105.826 9.49072 125.405 13.2767 136.463 17.7005C148.002 22.3166 156.682 28.6862 161.641 40.2896C160.726 39.6979 159.843 39.0506 158.887 38.5275C139.951 28.1595 115.438 21.082 94.0925 27.3847C82.475 30.8151 72.4554 38.5173 66.6639 49.2448Q66.2201 50.055 65.817 50.8863Q65.4139 51.7175 65.0525 52.5677Q64.6912 53.4179 64.3724 54.285Q64.0537 55.1521 63.7783 56.0339Q63.503 56.9158 63.2717 57.8102Q63.0404 58.7046 62.8538 59.6094Q62.6672 60.5141 62.5257 61.4271Q62.3842 62.34 62.2881 63.2588Q62.1921 64.1776 62.1417 65.1001Q62.0913 66.0225 62.0868 66.9463Q62.0822 67.8701 62.1235 68.793Q62.1648 69.7159 62.2518 70.6356Q62.3388 71.5554 62.4713 72.4696Q62.6038 73.3839 62.7815 74.2905Q62.9592 75.197 63.1817 76.0937Q63.4041 76.9903 63.6708 77.8748C66.6596 87.7599 73.1306 96.3248 82.2932 101.229C88.6193 104.616 95.2679 106.437 102.457 106.177C121.655 105.485 131.217 92.3501 148.376 87.1894C158.294 84.2063 171.285 83.8955 180.637 88.931C177.832 88.9486 175.196 89.0801 172.46 89.7385C156.818 93.5031 143.479 108.009 129.663 116.062C124.509 119.067 118.167 119.941 113.323 123.305C111.14 124.82 110.098 127.037 109.646 129.608C108.617 135.462 109.464 142.005 109.519 147.965C109.549 151.236 109.237 154.604 109.509 157.862C109.583 158.738 109.675 159.582 110.195 160.315C111.725 160.99 113.75 161.027 115.416 161.084C122.073 161.314 128.811 161.101 135.477 161.091L172.57 161.084L193.57 161.097C198.013 161.099 203.431 161.696 207.706 160.59C208.32 160.431 208.902 160.228 209.238 159.662C209.851 158.628 210.1 157.474 210.2 156.285C210.597 151.598 210.163 146.605 210.143 141.881Q210.101 136.142 210.142 130.403C210.194 125.808 210.678 120.825 209.501 116.333C207.298 107.921 198.683 101.915 191.215 98.4122C189.276 97.5025 186.997 97.0603 185.184 95.9821L185.216 95.7626C186.243 95.0742 188.011 94.7878 189.229 94.5326C198.993 92.4861 213.767 97.7082 223.14 100.884C230.612 103.416 238.081 106.421 246.144 105.331C251.547 104.601 256.906 101.786 260.197 97.3763C263.723 92.6526 264.962 86.7132 264.076 80.9348C263.311 75.9454 260.763 71.5446 257.249 67.9907C247.855 58.4903 234.884 57.9589 222.307 58.0135L206.982 58.0902C199.523 58.1154 191.01 58.0176 184.752 53.3283C179.077 49.0767 177.036 42.224 176.086 35.5382L177.242 36.8747C183.217 43.7507 193.049 44.9212 201.55 45.6009C205.59 45.924 209.613 46.1588 213.669 46.029C217.444 45.9082 221.203 45.4307 224.976 45.2814C230.4 45.0669 235.969 45.0979 241.384 45.4916C253.237 46.3534 267.323 49.0753 275.442 58.5047C283.607 67.9874 285.596 79.1614 284.703 91.3338C284.302 95.6804 283.005 99.7474 281.046 103.643C276.75 112.184 269.441 119.086 260.289 122.08C252.794 124.532 245.769 123.658 238.237 122.003C234.698 121.226 230.832 120.224 227.603 118.552L227.365 118.428C227.234 118.471 227.065 118.456 226.973 118.559C226.613 118.965 226.72 125.247 226.721 126.183L226.717 212.255L226.73 240.924C226.734 246.506 226.898 252.149 226.632 257.724C226.565 259.114 226.384 262.774 225.496 263.75C224.719 264.603 222.791 264.874 221.713 264.99C219.404 265.24 216.97 265.093 214.648 265.089C210.024 265.08 205.401 265.027 200.779 265.158C200.695 270.416 201.719 290.699 199.225 294.094C198.867 294.581 198.488 294.932 197.845 294.971C196.346 295.06 194.108 293.755 192.852 292.979C188.411 290.235 184.27 286.676 180.088 283.537L155.788 265.271C152.662 264.776 149.219 265.045 146.049 265.054C138.949 265.075 131.767 265.329 124.675 265.074C115.855 264.756 107.864 260.727 101.907 254.294C97.957 250.029 95.2814 245.226 93.8739 239.573C92.2539 233.067 93.0366 221.021 93.025 213.964C93.0139 207.237 92.7203 200.406 93.0132 193.697C93.0641 192.531 93.1631 190.19 94.0743 189.418C96.5977 187.281 103.42 188.19 106.553 188.382C107.677 189.212 108.478 190.007 108.823 191.398C109.475 194.031 109.045 197.606 109.039 200.351L108.992 218.24C108.981 223.897 108.451 230.631 109.959 236.112C110.637 238.576 111.98 240.875 113.662 242.789C119.799 249.771 129.024 249.096 137.427 249.079L152.845 249.026C155.806 249.011 159.206 248.677 162.067 249.557C165.771 250.696 177.345 262.149 182.408 264.94C183.207 265.38 183.715 265.539 184.591 265.278C185.639 264.01 185.094 251.655 185.255 249.004C189.849 248.871 206.391 250.149 209.315 247.396C210.042 246.711 210.132 245.655 210.192 244.711C210.382 241.754 210.207 238.678 210.208 235.707L210.203 217.43C210.201 205.784 210.657 193.546 210.11 181.976C210.064 181.016 210.106 179.154 209.424 178.472C208.558 177.607 206.891 177.457 205.745 177.374C201.889 177.095 197.899 177.31 194.024 177.296Q181.138 177.192 168.253 177.348C147.901 177.429 127.542 177.085 107.191 177.381C103.194 177.44 98.2608 177.738 95.205 174.688C93.8821 173.368 93.5295 171.442 93.2822 169.654C92.571 164.512 93.006 158.868 93.0105 153.669L93.0177 124.089C81.4265 123.096 70.3075 119.632 61.4694 111.793C49.4058 101.093 43.1385 86.7793 42.1808 70.7816C41.2348 54.9792 45.5789 38.5246 56.2401 26.5367C62.9872 18.9499 72.3501 13.3382 82.3723 11.4676C86.1511 10.7623 90.0582 10.585 93.8922 10.3593Z"/>
</svg>
